<svg width="250" height="305" viewBox="0 0 250 305" fill="none" xmlns="http://www.w3.org/2000/svg">
<g clip-path="url(#clip0_601_2)">
<path d="M158.136 82.4536L174.672 98.1058L56.5386 223.276L40.0179 207.623L158.214 82.4536M158.057 76.7949L34.2695 207.86L56.6331 229.013L180.326 98.027L157.978 76.8737L158.057 76.7949Z" fill="white"/>
<path d="M197.394 114.179L73.6787 245.162L76.5857 247.912L200.3 116.93L197.394 114.179Z" fill="white"/>
<path d="M241.533 219.453L237.582 220.081L242.452 250.748L246.402 250.12L241.533 219.453Z" fill="white"/>
<path d="M172.057 247.581C170.52 247.589 168.983 247.495 167.459 247.298C161.427 246.447 139.677 237.273 138.748 236.879L140.323 233.19C146.481 235.791 163.458 242.648 168.025 243.326C172.155 243.714 176.317 243.555 180.404 242.853L243.117 232.875L243.747 236.831L181.081 246.809C178.098 247.303 175.081 247.562 172.057 247.581Z" fill="white"/>
<path d="M249.498 272.907L145.984 289.353L146.486 292.513L249.999 276.067L249.498 272.907Z" fill="white"/>
<path d="M127.055 239.407L65.9209 249.296L66.5609 253.259L127.695 243.371L127.055 239.407Z" fill="white"/>
<path d="M132.855 291.457L71.8672 301.146L72.3684 304.307L133.357 294.617L132.855 291.457Z" fill="white"/>
<path d="M98.3862 243.953L94.4355 244.581L102.944 298.163L106.894 297.535L98.3862 243.953Z" fill="white"/>
<path d="M67.5981 248.855L63.6475 249.483L72.1555 303.065L76.1062 302.437L67.5981 248.855Z" fill="white"/>
<path d="M145.915 268.451L143.285 265.424C144.041 264.762 161.885 249.284 167.35 246.604C171.535 244.756 175.955 243.494 180.484 242.853L243.102 232.891L243.732 236.847L181.067 246.809C176.95 247.412 172.931 248.557 169.114 250.214C164.956 252.231 151.034 264.069 145.915 268.451Z" fill="white"/>
<path d="M46.5466 0.0379559L45.543 3.91357L73.7621 11.2335L74.7657 7.35792L46.5466 0.0379559Z" fill="white"/>
<path d="M2.04737 176.13L0 172.678L17.3239 162.448C24.3695 158.625 30.2353 152.945 34.2856 146.023C37.2877 140.754 39.5455 135.094 40.9947 129.205L72.6975 6.79346L76.5718 7.7865L44.9162 130.135C43.3971 136.411 40.995 142.44 37.7819 148.041C33.362 155.538 27.0083 161.706 19.387 165.9C13.7489 169.21 2.04737 176.13 2.04737 176.13Z" fill="white"/>
<path d="M63.7653 86.1317L62.7617 90.0073L80.5378 94.6184L81.5414 90.7428L63.7653 86.1317Z" fill="white"/>
<path d="M98.9327 13.5227L53.998 187.17L57.8705 188.174L102.805 14.5265L98.9327 13.5227Z" fill="white"/>
</g>
<defs>
<clipPath id="clip0_601_2">
<rect width="250" height="304.31" fill="white"/>
</clipPath>
</defs>
</svg>
