<svg xmlns="http://www.w3.org/2000/svg" width="18" height="18" viewBox="0 0 18 18"><defs><style>.a{fill:#ff4b75;stroke:#ff4b75;}.b{fill:#fff;}.c{stroke:none;}.d{fill:none;}</style></defs><g class="a"><rect class="c" width="18" height="18" rx="3"/><rect class="d" x="0.5" y="0.5" width="17" height="17" rx="2.5"/></g><path class="b" d="M11.152,9.092,5.214,15.03,2.347,12.163a.469.469,0,0,0-.663,0l-.442.442a.469.469,0,0,0,0,.663l3.64,3.64a.469.469,0,0,0,.663,0L12.257,10.2a.469.469,0,0,0,0-.663l-.442-.442A.469.469,0,0,0,11.152,9.092Z" transform="translate(2 -4)"/></svg>