<svg width="70" height="70" viewBox="0 0 70 70" fill="none" xmlns="http://www.w3.org/2000/svg">
<g clip-path="url(#clip0_616_131)">
<path d="M35 70C54.33 70 70 54.33 70 35C70 15.67 54.33 0 35 0C15.67 0 0 15.67 0 35C0 54.33 15.67 70 35 70Z" fill="url(#paint0_linear_616_131)"/>
<path d="M19.8936 28.0677C19.888 23.6383 21.1415 19.2984 23.5079 15.5541C25.7451 14.8678 28.0722 14.5194 30.4122 14.5204C36.6423 14.5204 42.6172 16.9951 47.0228 21.4002C51.4283 25.8053 53.9036 31.78 53.9042 38.0101C53.9077 42.4402 52.6518 46.7801 50.2829 50.5237C48.0449 51.2099 45.7171 51.5583 43.3762 51.5574C37.1476 51.5555 31.1747 49.0799 26.7711 44.6749C22.3674 40.27 19.8936 34.2964 19.8936 28.0677Z" fill="url(#paint1_linear_616_131)"/>
<path d="M16.0928 42.4853C20.1044 39.2578 25.1074 37.5145 30.2561 37.5503C39.5474 37.5503 47.4364 42.987 50.2878 50.5447C46.2768 53.7717 41.2746 55.5149 36.1268 55.4797C26.8331 55.4797 18.9441 50.043 16.0928 42.4853Z" fill="#EFF7F1"/>
</g>
<defs>
<linearGradient id="paint0_linear_616_131" x1="12.8893" y1="12.8893" x2="57.5283" y2="57.5283" gradientUnits="userSpaceOnUse">
<stop stop-color="#FFEC15"/>
<stop offset="1" stop-color="#55D9E8"/>
</linearGradient>
<linearGradient id="paint1_linear_616_131" x1="24.9312" y1="17.5607" x2="48.8222" y2="48.4611" gradientUnits="userSpaceOnUse">
<stop stop-color="#16A6A7"/>
<stop offset="1" stop-color="#ABE37E"/>
</linearGradient>
<clipPath id="clip0_616_131">
<rect width="70" height="70" fill="white"/>
</clipPath>
</defs>
</svg>
