<svg width="80" height="66" viewBox="0 0 80 66" fill="none" xmlns="http://www.w3.org/2000/svg">
<g clip-path="url(#clip0_613_87)">
<path fill-rule="evenodd" clip-rule="evenodd" d="M6.21171 23.6508H6.73483L6.90429 23.9307C8.39656 26.4146 10.5057 28.4705 13.027 29.8987C15.5391 31.3137 18.3736 32.0571 21.2568 32.0571C24.1401 32.0571 26.9746 31.3137 29.4867 29.8987C32.008 28.4705 34.1171 26.4146 35.6094 23.9307L35.7788 23.6508H40.3911L40.5385 24.0118C41.4894 26.3871 43.1301 28.4231 45.249 29.8572C47.3679 31.2913 49.8679 32.0578 52.4265 32.0578C54.9851 32.0578 57.485 31.2913 59.6039 29.8572C61.7228 28.4231 63.3635 26.3871 64.3145 24.0118L64.4619 23.6508H65.8765C66.3364 23.6508 66.7775 23.833 67.1034 24.1575C67.4293 24.482 67.6133 24.9223 67.6153 25.3822V35.2993L79.2196 31.2544C79.2912 31.2288 79.3671 31.2176 79.443 31.2216C79.519 31.2255 79.5933 31.2445 79.6618 31.2774C79.7304 31.3103 79.7917 31.3565 79.8423 31.4132C79.8928 31.47 79.9316 31.5362 79.9564 31.608C79.9666 31.6715 79.9666 31.7361 79.9564 31.7996V31.7996V51.8401C79.9564 51.9162 79.9413 51.9916 79.912 52.0618C79.8826 52.132 79.8396 52.1957 79.7855 52.2491C79.7314 52.3026 79.6671 52.3447 79.5965 52.3732C79.526 52.4016 79.4504 52.4158 79.3744 52.4148C79.2937 52.4151 79.2137 52.4001 79.1386 52.3706L67.5858 48.3404V58.2575C67.5849 58.4854 67.5389 58.7107 67.4504 58.9206C67.3618 59.1306 67.2326 59.3209 67.0701 59.4806V59.4806C66.7442 59.802 66.3047 59.9821 65.847 59.9816H42.7341V64.4833C42.7351 64.5594 42.7209 64.6349 42.6925 64.7055C42.664 64.7761 42.6219 64.8403 42.5684 64.8945C42.5149 64.9486 42.4512 64.9916 42.381 65.021C42.3108 65.0503 42.2355 65.0654 42.1594 65.0654H28.9783C28.9022 65.0654 28.8269 65.0503 28.7567 65.021C28.6865 64.9916 28.6228 64.9486 28.5693 64.8945C28.5159 64.8403 28.4737 64.7761 28.4453 64.7055C28.4168 64.6349 28.4027 64.5594 28.4036 64.4833V59.9816H6.21171C5.98406 59.9825 5.75847 59.9385 5.54796 59.8518C5.33746 59.7651 5.1462 59.6376 4.98522 59.4766C4.82425 59.3156 4.69675 59.1244 4.61008 58.9139C4.52341 58.7034 4.4793 58.4778 4.48027 58.2501V33.4647L0.79635 34.7393C0.724308 34.7713 0.646713 34.7888 0.567943 34.7909C0.413572 34.7909 0.265527 34.7296 0.156369 34.6204C0.047212 34.5113 -0.0141165 34.3633 -0.0141165 34.2089V26.9737C-0.0239403 26.9102 -0.0239403 26.8456 -0.0141165 26.7821C0.00981683 26.7096 0.0481218 26.6428 0.0984989 26.5855C0.148876 26.5282 0.21029 26.4816 0.279075 26.4486C0.347859 26.4156 0.4226 26.3968 0.498819 26.3933C0.575039 26.3899 0.651171 26.4018 0.722667 26.4285L4.40659 27.7252V25.3822C4.40651 25.1549 4.4514 24.9298 4.53865 24.7199C4.62589 24.51 4.75379 24.3194 4.91497 24.1591V24.1591C5.07501 23.9976 5.26554 23.8695 5.4755 23.7823C5.68546 23.695 5.91066 23.6503 6.13803 23.6508H6.21171ZM52.4154 7.85411C55.0525 7.86397 57.6046 8.78732 59.6375 10.467C61.6704 12.1467 63.0585 14.4789 63.5654 17.0667C64.0724 19.6546 63.667 22.3382 62.4182 24.6608C61.1693 26.9833 59.1543 28.8014 56.7159 29.8056C54.2775 30.8098 51.5665 30.9379 49.0443 30.1684C46.522 29.3988 44.3444 27.779 42.8819 25.5846C41.4195 23.3902 40.7627 20.7569 41.0232 18.1327C41.2837 15.5086 42.4455 13.0558 44.3108 11.1918C45.3741 10.1275 46.6379 9.2845 48.029 8.71162C49.4201 8.13873 50.911 7.84727 52.4154 7.85411ZM56.4898 15.1851C55.5465 14.2406 54.3047 13.6525 52.9763 13.521C51.6478 13.3895 50.3149 13.7228 49.2046 14.4641C48.0944 15.2053 47.2756 16.3087 46.8878 17.5861C46.5 18.8635 46.5672 20.2358 47.078 21.4692C47.5887 22.7025 48.5114 23.7206 49.6887 24.3499C50.8661 24.9791 52.2252 25.1806 53.5345 24.9199C54.8437 24.6593 56.0221 23.9527 56.8686 22.9205C57.7152 21.8883 58.1776 20.5945 58.1771 19.2595C58.1764 17.7315 57.5696 16.2662 56.4898 15.1851ZM21.2716 1.69557e-05C24.8184 0.00346114 28.2543 1.23646 30.9941 3.48899C33.7338 5.74153 35.6079 8.87426 36.297 12.3535C36.9861 15.8328 36.4477 19.4433 34.7734 22.5701C33.0991 25.6969 30.3926 28.1465 27.1148 29.5017C23.8371 30.8568 20.1909 31.0337 16.7974 30.0021C13.4039 28.9706 10.473 26.7944 8.50392 23.8443C6.53488 20.8943 5.64953 17.3528 5.99868 13.8231C6.34783 10.2935 7.90988 6.99415 10.4187 4.48703C11.842 3.06188 13.5328 1.93186 15.394 1.16185C17.2551 0.391849 19.25 -0.00298194 21.2642 1.69557e-05H21.2716ZM26.9669 9.63714C25.6492 8.32342 23.917 7.50702 22.065 7.32693C20.2131 7.14684 18.356 7.61421 16.8099 8.64945C15.2638 9.68469 14.1243 11.2238 13.5854 13.0047C13.0466 14.7857 13.1416 16.6983 13.8544 18.4171C14.5672 20.1358 15.8537 21.5543 17.4948 22.4312C19.136 23.308 21.0303 23.5889 22.8552 23.2261C24.6802 22.8632 26.323 21.8791 27.5039 20.4412C28.6848 19.0033 29.3308 17.2005 29.332 15.3398C29.3322 14.2804 29.1235 13.2314 28.7176 12.2528C28.3118 11.2743 27.7169 10.3854 26.9669 9.63714V9.63714Z" fill="#221F20"/>
</g>
<defs>
<clipPath id="clip0_613_87">
<rect width="80" height="65.0728" fill="white"/>
</clipPath>
</defs>
</svg>
