<svg width="80" height="80" viewBox="0 0 80 80" fill="none" xmlns="http://www.w3.org/2000/svg">
<g clip-path="url(#clip0_613_60)">
<path fill-rule="evenodd" clip-rule="evenodd" d="M39.9897 3.42432e-05C49.2461 -0.0120726 58.2202 3.18647 65.3823 9.05044C72.5443 14.9144 77.4509 23.0808 79.2657 32.1576C81.0806 41.2343 79.6912 50.6596 75.3346 58.8266C70.9779 66.9936 63.9236 73.3969 55.3742 76.9449C46.8248 80.4929 37.3095 80.966 28.4503 78.2836C19.5911 75.6011 11.9364 69.9291 6.79112 62.2345C1.64582 54.5399 -0.671596 45.299 0.233908 36.087C1.13941 26.875 5.21179 18.2622 11.7568 11.7167C15.4604 8.00205 19.8606 5.05494 24.7055 3.04435C29.5503 1.03375 34.7443 -0.000788494 39.9897 3.42432e-05ZM42.1879 39.7076C42.1914 39.396 42.1315 39.087 42.0119 38.7993C41.8923 38.5115 41.7155 38.2511 41.4921 38.0338C41.2752 37.81 41.0149 37.6328 40.727 37.5132C40.4392 37.3936 40.13 37.3339 39.8183 37.338C39.5068 37.3367 39.198 37.3971 38.91 37.5157C38.6219 37.6343 38.3601 37.8088 38.1398 38.0291C37.9195 38.2494 37.745 38.5112 37.6264 38.7993C37.5078 39.0873 37.4474 39.3961 37.4488 39.7076C37.4447 40.0199 37.5032 40.3299 37.6209 40.6192C37.7385 40.9085 37.9129 41.1713 38.1337 41.3922C38.3546 41.613 38.6174 41.7874 38.9067 41.9051C39.1961 42.0227 39.506 42.0812 39.8183 42.0772C40.1287 42.0786 40.4363 42.0187 40.7236 41.9011C41.0108 41.7834 41.2719 41.6103 41.4921 41.3915C41.7139 41.171 41.8897 40.9085 42.0091 40.6194C42.1285 40.3304 42.1893 40.0204 42.1879 39.7076ZM32.8206 30.4613C32.509 30.46 32.2003 30.5204 31.9122 30.639C31.6242 30.7576 31.3624 30.9321 31.1421 31.1524C30.9218 31.3727 30.7473 31.6344 30.6287 31.9225C30.5101 32.2106 30.4497 32.5193 30.451 32.8309C30.4299 33.1557 30.4756 33.4815 30.5853 33.788C30.6951 34.0945 30.8665 34.3751 31.0891 34.6127C31.3117 34.8502 31.5806 35.0396 31.8793 35.1691C32.178 35.2985 32.5001 35.3653 32.8256 35.3653C33.1512 35.3653 33.4733 35.2985 33.7719 35.1691C34.0706 35.0396 34.3396 34.8502 34.5622 34.6127C34.7847 34.3751 34.9562 34.0945 35.0659 33.788C35.1757 33.4815 35.2214 33.1557 35.2002 32.8309C35.2016 32.5185 35.1409 32.2089 35.0216 31.9202C34.9024 31.6314 34.727 31.3692 34.5056 31.1488C34.2843 30.9284 34.0213 30.7541 33.7321 30.6361C33.4428 30.518 33.133 30.4587 32.8206 30.4613ZM28.1723 38.3161C27.7271 38.7635 27.477 39.3689 27.4765 40C27.4774 40.6281 27.7277 41.2302 28.1723 41.6739C28.3915 41.8946 28.6523 42.0697 28.9396 42.1893C29.2268 42.3088 29.5349 42.3703 29.8461 42.3703C30.1572 42.3703 30.4653 42.3088 30.7525 42.1893C31.0398 42.0697 31.3006 41.8946 31.5198 41.6739C31.7418 41.4555 31.9177 41.1949 32.0372 40.9074C32.1567 40.6199 32.2174 40.3114 32.2156 40C32.2176 39.6872 32.1571 39.3771 32.0376 39.0879C31.9181 38.7987 31.7421 38.5364 31.5198 38.3161C31.3006 38.0954 31.0398 37.9203 30.7525 37.8007C30.4653 37.6812 30.1572 37.6197 29.8461 37.6197C29.5349 37.6197 29.2268 37.6812 28.9396 37.8007C28.6523 37.9203 28.3915 38.0954 28.1723 38.3161ZM30.451 47.1994C30.4502 47.5121 30.5112 47.8219 30.6306 48.1109C30.75 48.3999 30.9254 48.6624 31.1468 48.8833C31.3669 49.1043 31.6286 49.2797 31.9167 49.3994C32.2048 49.5191 32.5137 49.5807 32.8256 49.5807C33.1376 49.5807 33.4465 49.5191 33.7346 49.3994C34.0227 49.2797 34.2843 49.1043 34.5045 48.8833C34.7826 48.6091 34.9885 48.2705 35.1041 47.8974C35.2197 47.5244 35.2413 47.1286 35.167 46.7452C35.0927 46.3619 34.9248 46.0028 34.6782 45.6999C34.4317 45.3971 34.114 45.1599 33.7537 45.0094C33.3933 44.859 33.0013 44.7999 32.6126 44.8375C32.2239 44.8751 31.8505 45.0082 31.5257 45.2249C31.2008 45.4417 30.9346 45.7354 30.7506 46.0798C30.5666 46.4243 30.4707 46.8089 30.4712 47.1994H30.451ZM38.3159 51.8478C38.5343 52.0697 38.7949 52.2457 39.0824 52.3652C39.3699 52.4847 39.6784 52.5453 39.9897 52.5435C40.3026 52.5455 40.6127 52.485 40.9019 52.3655C41.191 52.246 41.4534 52.07 41.6736 51.8478C42.1182 51.4041 42.3685 50.8021 42.3694 50.174C42.3667 49.5433 42.117 48.9387 41.6736 48.4901C41.2262 48.0449 40.6209 47.7948 39.9897 47.7944C39.3617 47.7953 38.7596 48.0455 38.3159 48.4901C37.8754 48.9398 37.6291 49.5445 37.6303 50.174C37.6289 50.4844 37.6887 50.792 37.8063 51.0792C37.924 51.3664 38.0972 51.6276 38.3159 51.8478ZM47.1589 49.579C47.4702 49.5808 47.7787 49.5202 48.0662 49.4007C48.3537 49.2812 48.6144 49.1053 48.8327 48.8833C49.0537 48.6632 49.2291 48.4015 49.3488 48.1134C49.4685 47.8253 49.5301 47.5164 49.5301 47.2045C49.5301 46.8925 49.4685 46.5836 49.3488 46.2955C49.2291 46.0074 49.0537 45.7458 48.8327 45.5256C48.6144 45.3037 48.3537 45.1278 48.0662 45.0083C47.7787 44.8888 47.4702 44.8281 47.1589 44.8299C46.6919 44.8306 46.2356 44.9692 45.8472 45.2283C45.4587 45.4875 45.1555 45.8556 44.9756 46.2865C44.7957 46.7174 44.7471 47.1919 44.836 47.6503C44.9248 48.1087 45.1471 48.5307 45.475 48.8632C45.923 49.3074 46.5279 49.5574 47.1589 49.5589V49.579ZM51.8072 41.7142C52.2518 41.2705 52.5021 40.6685 52.503 40.0404C52.5025 39.4092 52.2524 38.8039 51.8072 38.3565C51.3598 37.9113 50.7545 37.6612 50.1233 37.6607C49.4952 37.6616 48.8932 37.9119 48.4495 38.3565C48.008 38.8055 47.7616 39.4107 47.7639 40.0404C47.7625 40.3508 47.8223 40.6583 47.94 40.9456C48.0576 41.2328 48.2308 41.494 48.4495 41.7142C48.6679 41.9361 48.9285 42.1121 49.216 42.2316C49.5035 42.3511 49.812 42.4117 50.1233 42.4099C50.4362 42.4119 50.7463 42.3514 51.0355 42.2319C51.3246 42.1125 51.587 41.9364 51.8072 41.7142ZM49.5284 32.8712C49.5269 32.2403 49.2769 31.6353 48.8327 31.1873C48.6125 30.9686 48.3513 30.7954 48.0641 30.6777C47.7769 30.5601 47.4693 30.5002 47.1589 30.5017C46.8465 30.499 46.5367 30.5584 46.2474 30.6764C45.9582 30.7944 45.6952 30.9687 45.4738 31.1891C45.2525 31.4095 45.0771 31.6718 44.9579 31.9605C44.8386 32.2493 44.7779 32.5588 44.7793 32.8712C44.7779 33.1836 44.8386 33.4932 44.9579 33.7819C45.0771 34.0707 45.2525 34.3329 45.4738 34.5533C45.6952 34.7738 45.9582 34.9481 46.2474 35.0661C46.5367 35.1841 46.8465 35.2435 47.1589 35.2408C47.4696 35.2445 47.7779 35.1856 48.0654 35.0678C48.3529 34.9501 48.6139 34.7757 48.8327 34.5551C49.054 34.3342 49.2295 34.0717 49.3489 33.7827C49.4683 33.4937 49.5293 33.1839 49.5284 32.8712ZM41.6736 28.2229C41.4529 28.002 41.1902 27.8275 40.901 27.7098C40.6118 27.592 40.302 27.5333 39.9897 27.5372C39.679 27.5335 39.3708 27.5923 39.0832 27.7101C38.7957 27.8279 38.5348 28.0023 38.3159 28.2229C37.8762 28.6731 37.63 29.2774 37.63 29.9068C37.63 30.5361 37.8762 31.1404 38.3159 31.5906C38.5361 31.8094 38.7973 31.9826 39.0845 32.1003C39.3717 32.2179 39.6794 32.2777 39.9897 32.2763C40.6195 32.2786 41.2246 32.0321 41.6736 31.5906C42.1182 31.143 42.3677 30.5377 42.3677 29.9068C42.3677 29.2759 42.1182 28.6705 41.6736 28.2229ZM20.2267 12.11C18.3622 12.1138 16.5566 12.7633 15.117 13.9482C13.6774 15.133 12.6927 16.78 12.3304 18.609C11.9681 20.4379 12.2505 22.336 13.1297 23.9802C14.0089 25.6244 15.4305 26.9132 17.1527 27.6275C18.875 28.3419 20.7915 28.4375 22.5763 27.8982C24.3611 27.3589 25.904 26.2181 26.9425 24.6696C27.981 23.1211 28.4511 21.2606 28.2727 19.4047C28.0943 17.5487 27.2785 15.8119 25.964 14.4896C25.2124 13.7335 24.3184 13.1339 23.3336 12.7254C22.3488 12.317 21.2928 12.1078 20.2267 12.11ZM6.29173 34.293C4.98002 35.6172 4.16738 37.3548 3.9919 39.2104C3.81643 41.066 4.28894 42.9251 5.32917 44.4717C6.3694 46.0183 7.91313 47.157 9.69794 47.6941C11.4828 48.2313 13.3985 48.1337 15.1196 47.4182C16.8406 46.7026 18.2607 45.413 19.1386 43.7688C20.0164 42.1245 20.2977 40.2271 19.9347 38.3989C19.5717 36.5707 18.5868 34.9246 17.1475 33.7404C15.7081 32.5562 13.903 31.907 12.0392 31.9032C10.9706 31.901 9.91231 32.1112 8.92567 32.5214C7.93903 32.9316 7.0437 33.5338 6.29173 34.293ZM12.0997 59.8034C12.0967 61.6868 12.7471 63.5128 13.94 64.9702C15.1329 66.4276 16.7944 67.4261 18.6411 67.7954C20.4879 68.1647 22.4056 67.8819 24.0672 66.9954C25.7288 66.1088 27.0315 64.6733 27.753 62.9337C28.4746 61.194 28.5703 59.258 28.024 57.4556C27.4776 55.6533 26.323 54.0963 24.7569 53.0501C23.1909 52.0039 21.3105 51.5333 19.4363 51.7186C17.5621 51.9039 15.8101 52.7335 14.4793 54.0661C13.7232 54.8177 13.1236 55.7118 12.7151 56.6965C12.3067 57.6813 12.0975 58.7373 12.0997 59.8034ZM34.2827 73.7283C35.6111 75.0557 37.3587 75.8814 39.2277 76.0647C41.0967 76.248 42.9714 75.7776 44.5324 74.7336C46.0934 73.6896 47.2442 72.1366 47.7885 70.3392C48.3328 68.5419 48.2371 66.6114 47.5176 64.8768C46.7982 63.1421 45.4994 61.7106 43.8428 60.8261C42.1862 59.9417 40.2741 59.659 38.4324 60.0263C36.5907 60.3936 34.9334 61.3882 33.7428 62.8405C32.5522 64.2928 31.902 66.113 31.903 67.991C31.9008 69.0571 32.11 70.113 32.5185 71.0978C32.9269 72.0826 33.5266 72.9767 34.2827 73.7283ZM59.7931 67.9204C61.6572 67.9142 63.4616 67.2627 64.8996 66.0765C66.3375 64.8904 67.3203 63.2429 67.6808 61.414C68.0414 59.5851 67.7574 57.6878 66.8771 56.0447C65.9968 54.4015 64.5747 53.114 62.8524 52.4009C61.1301 51.6878 59.214 51.5932 57.4299 52.1332C55.6457 52.6732 54.1037 53.8144 53.0659 55.3628C52.028 56.9113 51.5585 58.7714 51.7372 60.6269C51.9158 62.4823 52.7316 64.2187 54.0457 65.5407C54.7985 66.2981 55.6942 66.8984 56.6808 67.3068C57.6674 67.7153 58.7253 67.9239 59.7931 67.9204ZM73.7281 45.7374C75.0552 44.4092 75.8808 42.6621 76.0644 40.7936C76.2479 38.9251 75.7781 37.0507 74.7348 35.4897C73.6915 33.9287 72.1393 32.7777 70.3427 32.2326C68.546 31.6876 66.6159 31.7822 64.8812 32.5005C63.1465 33.2187 61.7144 34.5161 60.8289 36.1717C59.9433 37.8273 59.6591 39.7386 60.0246 41.5802C60.3901 43.4218 61.3828 45.0798 62.8335 46.2717C64.2841 47.4636 66.1031 48.1157 67.9807 48.117C69.0481 48.1177 70.1051 47.908 71.0914 47.4996C72.0776 47.0913 72.9736 46.4924 73.7281 45.7374ZM67.9101 20.2269C67.9074 18.075 67.0514 16.0119 65.5297 14.4903C64.0081 12.9686 61.945 12.1126 59.7931 12.11C57.6404 12.11 55.5758 12.9651 54.0536 14.4874C52.5313 16.0096 51.6762 18.0742 51.6762 20.2269C51.6762 22.3797 52.5313 24.4442 54.0536 25.9665C55.5758 27.4887 57.6404 28.3439 59.7931 28.3439C61.945 28.3412 64.0081 27.4852 65.5297 25.9635C67.0514 24.4419 67.9074 22.3788 67.9101 20.2269ZM45.7271 6.30203C44.3996 4.96958 42.6511 4.13878 40.7797 3.9513C38.9082 3.76382 37.0297 4.23127 35.4643 5.27392C33.8989 6.31657 32.7436 7.86988 32.1954 9.66904C31.6472 11.4682 31.74 13.4018 32.4579 15.1402C33.1759 16.8786 34.4746 18.3142 36.1326 19.2022C37.7907 20.0901 39.7053 20.3756 41.5503 20.0098C43.3952 19.6439 45.0561 18.6495 46.2498 17.1961C47.4436 15.7427 48.0963 13.9202 48.0966 12.0394C48.1001 10.9739 47.8925 9.91838 47.4858 8.93363C47.0791 7.94889 46.4814 7.05448 45.7271 6.30203Z" fill="#221F20"/>
</g>
<defs>
<clipPath id="clip0_613_60">
<rect width="80" height="80" fill="white"/>
</clipPath>
</defs>
</svg>
