<svg width="71" height="80" viewBox="0 0 71 80" fill="none" xmlns="http://www.w3.org/2000/svg">
<g clip-path="url(#clip0_616_264)">
<path d="M8.86133 70.4246H61.329V9.57544H8.86133V70.4246ZM39.7782 27.4831C40.5067 26.7829 41.3734 26.2423 42.3227 25.8961C43.272 25.5499 44.2831 25.4057 45.2914 25.4726C46.2996 25.5395 47.2828 25.8161 48.178 26.2847C49.0733 26.7533 49.8609 27.4037 50.4905 28.1941C51.12 28.9844 51.5777 29.8975 51.8342 30.8749C52.0907 31.8522 52.1404 32.8724 51.9801 33.8701C51.8198 34.8677 51.4531 35.821 50.9033 36.6688C50.3536 37.5167 49.6329 38.2405 48.7875 38.7939C51.019 39.6122 52.9459 41.0952 54.3082 43.0429C55.6705 44.9906 56.4027 47.3093 56.4059 49.6862H54.4736C54.4672 47.3199 53.597 45.0373 52.0264 43.2674C50.4559 41.4974 48.2931 40.3618 45.9444 40.0739C45.5363 40.0217 45.1251 39.997 44.7136 40C44.4306 40 44.1598 40 43.889 40C44.0712 39.3372 44.1785 38.656 44.2091 37.9692H44.7136C45.2012 37.9696 45.6863 37.8991 46.1536 37.76C46.9083 37.5491 47.607 37.1739 48.1997 36.6615C48.7925 36.149 49.2646 35.5118 49.5823 34.7955C49.9001 34.0793 50.0556 33.3016 50.0377 32.5183C50.0199 31.7349 49.8291 30.9652 49.479 30.2641C49.129 29.5631 48.6283 28.9481 48.0128 28.4631C47.3974 27.9782 46.6823 27.6353 45.9189 27.4589C45.1554 27.2826 44.3624 27.2771 43.5966 27.443C42.8308 27.6089 42.1111 27.942 41.489 28.4185C40.9705 28.8155 40.5285 29.3034 40.1844 29.8585C39.6468 29.4972 39.0735 29.1921 38.4736 28.9477C38.8371 28.4003 39.2764 27.9072 39.7782 27.4831ZM42.3629 37.5754C42.3599 38.7753 42.0606 39.9558 41.4916 41.0122C40.9226 42.0686 40.1015 42.9681 39.1013 43.6308C41.3339 44.4513 43.2612 45.9366 44.6234 47.8864C45.9857 49.8363 46.7173 52.1569 46.7198 54.5354H44.7752C44.7752 51.9665 43.7547 49.5028 41.9382 47.6862C40.1217 45.8697 37.6579 44.8493 35.089 44.8493C32.5201 44.8493 30.0564 45.8697 28.2399 47.6862C26.4234 49.5028 25.4029 51.9665 25.4029 54.5354H23.4706C23.473 52.1569 24.2047 49.8363 25.5669 47.8864C26.9292 45.9366 28.8565 44.4513 31.089 43.6308C30.0426 42.9371 29.1939 41.9838 28.6257 40.8642C28.0576 39.7446 27.7895 38.4968 27.8476 37.2427C27.9056 35.9885 28.2878 34.7708 28.957 33.7084C29.6261 32.646 30.5593 31.7754 31.6653 31.1813C32.7714 30.5872 34.0125 30.29 35.2677 30.3188C36.5229 30.3475 37.7492 30.7013 38.8269 31.3454C39.9046 31.9896 40.7969 32.9022 41.4166 33.9941C42.0364 35.086 42.3624 36.3199 42.3629 37.5754ZM21.4398 38.8062C20.5269 38.2049 19.7614 37.4051 19.2006 36.4667C18.6399 35.5282 18.2983 34.4753 18.2012 33.3864C18.1042 32.2975 18.2543 31.2007 18.6403 30.1779C19.0263 29.1551 19.6383 28.2326 20.4306 27.4794C21.2229 26.7261 22.175 26.1614 23.216 25.8275C24.2569 25.4935 25.3599 25.3989 26.4425 25.5507C27.5252 25.7025 28.5595 26.0968 29.4684 26.7042C30.3774 27.3116 31.1375 28.1163 31.6921 29.0585C31.0922 29.3028 30.519 29.608 29.9814 29.9692C29.6373 29.4142 29.1952 28.9263 28.6767 28.5292C28.0548 28.0546 27.3358 27.7229 26.5711 27.5581C25.8063 27.3932 25.0146 27.3992 24.2524 27.5755C23.4902 27.7518 22.7763 28.0943 22.1616 28.5782C21.5469 29.0622 21.0466 29.6758 20.6964 30.3754C20.3461 31.075 20.1546 31.8431 20.1354 32.6252C20.1162 33.4073 20.2698 34.1841 20.5853 34.9C20.9008 35.6159 21.3705 36.2533 21.9607 36.7668C22.5509 37.2804 23.2471 37.6573 23.9998 37.8708C24.4675 38.0083 24.9524 38.0787 25.4398 38.08H25.9567C25.9811 38.7674 26.0886 39.4493 26.2767 40.1108C26.006 40.1108 25.7229 40.1108 25.4398 40.1108C25.053 40.1105 24.6666 40.1352 24.2829 40.1847C21.9331 40.47 19.7688 41.6049 18.1977 43.3754C16.6267 45.1459 15.7574 47.4299 15.7536 49.797H13.8214C13.7991 47.4056 14.5152 45.0657 15.8721 43.0965C17.2289 41.1273 19.1604 39.6247 21.4029 38.7939L21.4398 38.8062Z" fill="#221F20"/>
<path d="M35.089 42.9046C38.0322 42.9046 40.4182 40.5186 40.4182 37.5754C40.4182 34.6321 38.0322 32.2462 35.089 32.2462C32.1457 32.2462 29.7598 34.6321 29.7598 37.5754C29.7598 40.5186 32.1457 42.9046 35.089 42.9046Z" fill="#221F20"/>
<path d="M67.4831 0H2.70771C2.35213 0 2.00001 0.0700555 1.6715 0.20613C1.34299 0.342204 1.04455 0.541611 0.793119 0.793044C0.541686 1.04448 0.342204 1.34299 0.20613 1.6715C0.0700555 2.00001 0 2.35213 0 2.70771V77.2923C0 78.0104 0.285328 78.6992 0.793119 79.207C1.30091 79.7148 1.98958 80 2.70771 80H67.4831C68.2012 80 68.89 79.7148 69.3978 79.207C69.9055 78.6992 70.1908 78.0104 70.1908 77.2923V2.70771C70.1908 2.35213 70.1207 2.00001 69.9847 1.6715C69.8486 1.34299 69.6492 1.04448 69.3978 0.793044C69.1463 0.541611 68.8478 0.342204 68.5193 0.20613C68.1908 0.0700555 67.8387 0 67.4831 0ZM65.0216 71.8031C65.0216 72.4168 64.7777 73.0053 64.3438 73.4392C63.9099 73.8732 63.3214 74.1169 62.7077 74.1169H7.47078C6.85924 74.1136 6.27389 73.8685 5.84262 73.4349C5.41135 73.0013 5.16924 72.4147 5.16925 71.8031V8.19689C5.16924 7.58535 5.41135 6.99871 5.84262 6.56513C6.27389 6.13155 6.85924 5.88637 7.47078 5.88311H62.7077C63.3214 5.88311 63.9099 6.12684 64.3438 6.56077C64.7777 6.9947 65.0216 7.58322 65.0216 8.19689V71.8031Z" fill="#221F20"/>
</g>
<defs>
<clipPath id="clip0_616_264">
<rect width="70.1785" height="80" fill="white"/>
</clipPath>
</defs>
</svg>
