<svg width="80" height="80" viewBox="0 0 80 80" fill="none" xmlns="http://www.w3.org/2000/svg">
<g clip-path="url(#clip0_613_79)">
<path fill-rule="evenodd" clip-rule="evenodd" d="M2.71717 1.47186e-05H4.62709V6.82255H17.0613V1.47186e-05H62.7418V6.82255H75.1956V1.47186e-05H77.2335C77.5983 -0.00500234 77.9604 0.0629547 78.2985 0.1999C78.6367 0.336845 78.944 0.540013 79.2025 0.797453C79.454 1.04961 79.6531 1.34907 79.7883 1.67856C79.9235 2.00806 79.9921 2.36106 79.9901 2.7172V77.2631C79.9921 77.6193 79.9235 77.9723 79.7883 78.3018C79.6531 78.6313 79.454 78.9307 79.2025 79.1828V79.1828C78.9448 79.4421 78.6379 79.6471 78.2997 79.7857C77.9615 79.9244 77.599 79.9939 77.2335 79.9901H75.1956V74.4474H62.7615V79.9901H17.0613V74.4474H4.62709V79.9901H2.71717C2.35981 79.9884 2.00627 79.9162 1.67685 79.7777C1.34743 79.6392 1.04858 79.437 0.797389 79.1828V79.1828C0.545879 78.9307 0.346822 78.6313 0.211644 78.3018C0.0764661 77.9723 0.00785422 77.6193 0.00980613 77.2631V2.72705C0.00785422 2.37091 0.0764661 2.01792 0.211644 1.68842C0.346822 1.35892 0.545879 1.05943 0.797389 0.807277V0.807277C1.04906 0.554427 1.34823 0.353817 1.67769 0.216965C2.00715 0.0801129 2.36041 0.00971947 2.71717 0.00983923V1.47186e-05ZM50.7703 40.3642L28.127 28.6291V51.2725L50.7703 40.3642ZM75.2153 59.5816H62.7615V66.0891H75.2153V59.5816ZM75.2153 44.7551H62.7615V51.2528H75.2153V44.7551ZM75.2153 29.9188H62.7615V36.4263H75.2153V29.9188ZM75.2153 15.0824H62.7615V21.5998H75.2153V15.0824ZM17.0613 59.6308H4.62709V66.1383H17.0613V59.6308ZM17.0613 44.8043H4.62709V51.302H17.0613V44.8043ZM17.0613 29.968H4.62709V36.4755H17.0613V29.968ZM17.0613 15.1317H4.62709V21.649H17.0613V15.1317Z" fill="#221F20"/>
</g>
<defs>
<clipPath id="clip0_613_79">
<rect width="79.9902" height="80" fill="white"/>
</clipPath>
</defs>
</svg>
