<svg width="25" height="24" viewBox="0 0 25 24" fill="none" xmlns="http://www.w3.org/2000/svg">
<path d="M12.7553 0.182093L15.522 8.50909C15.5402 8.56148 15.5747 8.60698 15.6207 8.63921C15.6667 8.67145 15.7218 8.6888 15.7784 8.68883H24.7268C24.7825 8.69039 24.8363 8.70868 24.8809 8.7412C24.9255 8.77372 24.9588 8.8189 24.9763 8.87058C24.9937 8.92227 24.9944 8.97795 24.9784 9.03006C24.9623 9.08217 24.9302 9.12818 24.8865 9.16182L17.6455 14.3103C17.5996 14.3434 17.5655 14.3897 17.5482 14.4428C17.5308 14.4959 17.531 14.553 17.5487 14.6059L20.3155 22.9306C20.3328 22.9836 20.3325 23.0406 20.3148 23.0935C20.297 23.1464 20.2627 23.1925 20.2166 23.2252C20.1706 23.258 20.1152 23.2757 20.0582 23.2758C20.0013 23.276 19.9458 23.2586 19.8995 23.2262L12.6585 18.0801C12.6127 18.0468 12.5572 18.0289 12.5001 18.0289C12.4431 18.0289 12.3875 18.0468 12.3417 18.0801L5.09831 23.2262C5.05231 23.2594 4.99669 23.2773 4.93954 23.2774C4.88238 23.2776 4.82668 23.2598 4.78054 23.2269C4.7344 23.1939 4.70023 23.1473 4.683 23.0941C4.66577 23.0408 4.66638 22.9835 4.68474 22.9306L7.4515 14.6059C7.46923 14.553 7.46942 14.4959 7.45205 14.4428C7.43468 14.3897 7.40065 14.3434 7.35477 14.3103L0.111372 9.16655C0.0677486 9.13304 0.0356896 9.08725 0.0195419 9.03535C0.0033943 8.98346 0.00393159 8.92796 0.0210771 8.87638C0.0382227 8.82479 0.0711548 8.77959 0.115417 8.7469C0.159679 8.7142 0.213133 8.69558 0.268566 8.69356H9.217C9.27358 8.69353 9.32872 8.67618 9.3747 8.64394C9.42068 8.61171 9.45518 8.56621 9.47336 8.51382L12.245 0.182093C12.2626 0.129486 12.2967 0.0836646 12.3425 0.0511751C12.3884 0.0186857 12.4435 0.00119019 12.5001 0.00119019C12.5567 0.00119019 12.6119 0.0186857 12.6577 0.0511751C12.7035 0.0836646 12.7377 0.129486 12.7553 0.182093Z" fill="#FFA621"/>
</svg>
