<svg width="106" height="70" viewBox="0 0 106 70" fill="none" xmlns="http://www.w3.org/2000/svg">
<g clip-path="url(#clip0_643_626)">
<path d="M105.229 24.4594H89.3871C89.2574 24.1807 89.1457 23.894 89.0526 23.601C88.5925 22.0458 88.7684 20.3715 89.5418 18.9459C90.3152 17.5203 91.6229 16.46 93.1775 15.9979L88.4283 0.0446777L70.1898 5.47388L18.9077 20.747L5.37368 24.7715L-0.0332031 26.3657L1.60556 31.8173L4.72713 42.3189C4.98307 42.2424 5.2437 42.1828 5.50746 42.1405H5.71927C5.93837 42.129 6.15795 42.129 6.37705 42.1405H6.49967C6.7871 42.1407 7.07412 42.1631 7.35811 42.2074H7.53645C7.81276 42.2519 8.085 42.319 8.35032 42.4081H8.46177C8.71001 42.4959 8.95212 42.6002 9.18644 42.7203L9.30905 42.776C9.55575 42.91 9.79404 43.0589 10.0226 43.2219L10.1675 43.3223C10.3905 43.5006 10.6022 43.679 10.814 43.8797V43.9354C11.0064 44.128 11.1818 44.3368 11.338 44.5597L11.4383 44.6935C11.5963 44.9308 11.7415 45.1765 11.8731 45.4293L11.9512 45.5853C12.0808 45.8641 12.1925 46.1508 12.2856 46.4438C12.7462 47.9975 12.5718 49.6705 11.8006 51.0958C11.0294 52.5211 9.72447 53.5824 8.17191 54.0469L11.2488 64.4259L12.9211 70.0001H32.6647H86.1764H105.207V53.3334C104.127 53.3262 103.068 53.0329 102.138 52.4833C101.209 51.9337 100.441 51.1475 99.9144 50.2048C99.3875 49.2621 99.12 48.1966 99.139 47.1168C99.158 46.037 99.4628 44.9816 100.023 44.058L101.416 43.6455L101.137 42.6979C102.261 41.6708 103.729 41.102 105.251 41.1037L105.229 24.4594ZM80.6023 20.0001L76.823 21.1149L77.7817 24.4594L78.4283 26.689L80.2232 32.9098L77.2466 33.7682L75.2065 26.689L74.5599 24.4594L73.8464 21.9622L70.0671 23.077L69.3536 20.6021L79.9556 17.5252L80.6023 20.0001ZM64.0917 28.2832L69.2533 26.7894L69.9668 29.2643L64.8051 30.7582L65.8531 34.3591L71.8397 32.6311L72.5532 35.106L63.6346 37.6924L60.4573 26.6779L59.8107 24.4482L59.5208 23.4114L68.3726 20.8585L69.0861 23.3334L65.2177 24.4482L63.1887 25.0391L63.668 26.6779L64.0917 28.2832ZM54.3815 40.3457L51.4161 41.2041L47.3024 26.9343L48.1496 26.689L50.2566 26.0759L50.435 26.689L51.9066 31.7949L53.1775 31.4382L54.2923 26.689L54.7159 24.805L55.92 24.4594L57.949 23.8685L57.804 24.4594L57.2578 26.689L55.9311 32.0179L62.6201 38.0491L59.3537 38.9856L53.9356 33.9577L52.6647 34.3256L54.3815 40.3457ZM28.4618 47.8262L25.4852 48.6846L22.0738 36.8897L18.3057 38.0045L17.5922 35.5296L28.1273 32.4973L28.8408 34.9611L25.0504 36.0759L28.4618 47.8262ZM32.3748 31.2375L36.4885 45.5073L33.5342 46.3657L29.4205 32.0848L32.3748 31.2375ZM36.2322 37.8373C35.5429 35.9615 35.4725 33.9143 36.0314 31.9956C36.3571 31.1885 36.8779 30.4747 37.5472 29.9182C38.2165 29.3618 39.0134 28.98 39.8664 28.8072C43.2109 27.8262 45.8531 29.2308 46.9345 32.3189L43.9802 33.1662C43.8989 32.8086 43.7429 32.4723 43.5223 32.1793C43.3017 31.8864 43.0216 31.6435 42.7005 31.4666C42.3793 31.2896 42.0243 31.1827 41.6588 31.1528C41.2933 31.123 40.9256 31.1709 40.5799 31.2933C40.1728 31.3813 39.7955 31.5734 39.4848 31.8509C39.1741 32.1284 38.9407 32.4817 38.8074 32.8763C38.5176 33.7682 38.6067 34.8942 39.2087 36.9789C39.8107 39.0636 40.3235 40.1004 41.0705 40.6913C41.3927 40.9548 41.7778 41.1303 42.1881 41.2007C42.5984 41.271 43.0199 41.2338 43.4116 41.0926C43.7626 41.0103 44.0927 40.8557 44.3807 40.6388C44.6688 40.422 44.9085 40.1475 45.0847 39.8329C45.2609 39.5183 45.3696 39.1704 45.404 38.8115C45.4384 38.4526 45.3978 38.0905 45.2845 37.7481L48.2388 36.9009C48.9634 40.0893 47.5142 42.6534 44.1251 43.5898C43.3114 43.8957 42.4348 43.9958 41.5732 43.881C40.7115 43.7663 39.8916 43.4403 39.1864 42.9321C37.6795 41.6002 36.6434 39.8171 36.2322 37.8485V37.8373ZM102.999 55.2509V67.7481H86.1986H32.6869H20.3904L31.9289 64.3479L83.2109 49.0748L97.3024 44.883C97.0693 45.6379 96.949 46.423 96.9456 47.213C96.9429 49.0302 97.5322 50.7989 98.6245 52.2512C99.7168 53.7036 101.252 54.7605 102.999 55.262V55.2509ZM102.999 39.164C102.079 39.4192 101.211 39.8343 100.435 40.3903L96.6781 27.6701C96.4218 27.7454 96.1612 27.805 95.8977 27.8485H95.6858C95.4629 27.8485 95.2399 27.8485 95.0281 27.8485H94.9054C94.618 27.8488 94.331 27.8264 94.0471 27.7816H93.8687C93.5887 27.7371 93.3128 27.67 93.0437 27.5809H92.9323C92.684 27.4931 92.4419 27.3888 92.2076 27.2687L92.085 27.213C91.843 27.0812 91.6085 26.9361 91.3826 26.7782L91.2488 26.6779H103.033L102.999 39.164Z" fill="white"/>
</g>
<defs>
<clipPath id="clip0_643_626">
<rect width="105.229" height="70" fill="white"/>
</clipPath>
</defs>
</svg>
